<svg height="512pt" viewBox="0 -41 512 511" width="512pt" xmlns="http://www.w3.org/2000/svg"><path d="m7.527344 187.253906v106.15625c0 71.019532 58.105468 129.125 129.125 129.125 71.019531 0 129.125-58.105468 129.125-129.125v-106.15625c0-20.089844-16.285156-36.371094-36.371094-36.371094h-185.503906c-20.089844 0-36.375 16.28125-36.375 36.371094zm0 0" fill="#d0cfd1"/><path d="m229.40625 150.882812h-23.085938c20.085938 0 36.371094 16.28125 36.371094 36.371094v106.15625c0 67.128906-51.917968 122.710938-117.582031 128.601563 3.804687.339843 7.652344.523437 11.542969.523437 71.019531 0 129.125-58.105468 129.125-129.125v-106.15625c0-20.089844-16.285156-36.371094-36.371094-36.371094zm0 0" fill="#b1b1b1"/><path d="m75.914062 205.554688c-21.523437 0-38.972656 17.449218-38.972656 38.972656h77.945313c0-21.523438-17.449219-38.972656-38.972657-38.972656zm0 0" fill="#646464"/><path d="m197.390625 205.554688c-21.523437 0-38.972656 17.449218-38.972656 38.972656h77.945312c0-21.523438-17.449219-38.972656-38.972656-38.972656zm0 0" fill="#646464"/><path d="m135.019531 381.15625c35.070313 0 64.941407-22.242188 76.289063-53.386719 4.921875-13.507812-5.25-27.785156-19.628906-27.785156h-113.320313c-14.378906 0-24.550781 14.277344-19.628906 27.785156 11.347656 31.144531 41.21875 53.386719 76.289062 53.386719zm0 0" fill="#646464"/><path d="m246.222656 44.402344v106.15625c0 71.019531 58.105469 129.125 129.125 129.125 71.019532 0 129.125-58.105469 129.125-129.125v-106.15625c0-20.089844-16.285156-36.375-36.375-36.375h-185.503906c-20.085938 0-36.371094 16.285156-36.371094 36.375zm0 0" fill="#d0cfd1"/><path d="m468.101562 8.027344h-23.085937c20.089844 0 36.371094 16.285156 36.371094 36.375v106.15625c0 67.128906-51.917969 122.710937-117.582031 128.597656 3.804687.34375 7.65625.527344 11.542968.527344 71.019532 0 129.125-58.105469 129.125-129.125v-106.15625c0-20.089844-16.285156-36.375-36.371094-36.375zm0 0" fill="#b1b1b1"/><path d="m316.242188 73.402344c-21.523438 0-38.96875 17.445312-38.96875 38.96875h77.941406c0-21.523438-17.449219-38.96875-38.972656-38.96875zm0 0" fill="#646464"/><path d="m437.71875 73.402344c-21.523438 0-38.972656 17.445312-38.972656 38.96875h77.941406c0-21.523438-17.445312-38.96875-38.96875-38.96875zm0 0" fill="#646464"/><path d="m376.980469 143.871094c-35.070313 0-64.941407 22.242187-76.289063 53.386718-4.921875 13.507813 5.25 27.785157 19.628906 27.785157h113.320313c14.378906 0 24.550781-14.277344 19.628906-27.785157-11.34375-31.144531-41.21875-53.386718-76.289062-53.386718zm0 0" fill="#646464"/><g fill="#18191b"><path d="m75.914062 198.027344c-25.640624 0-46.5 20.859375-46.5 46.5 0 4.15625 3.371094 7.527344 7.527344 7.527344h77.945313c4.15625 0 7.527343-3.371094 7.527343-7.527344 0-25.640625-20.859374-46.5-46.5-46.5zm-30.53125 38.972656c3.382813-13.714844 15.789063-23.917969 30.53125-23.917969 14.746094 0 27.152344 10.203125 30.535157 23.917969zm0 0"/><path d="m236.363281 252.054688c4.15625 0 7.527344-3.371094 7.527344-7.527344 0-25.640625-20.863281-46.5-46.5-46.5-25.640625 0-46.5 20.859375-46.5 46.5 0 4.15625 3.371094 7.527344 7.527344 7.527344zm-38.972656-38.972657c14.742187 0 27.148437 10.203125 30.53125 23.917969h-61.066406c3.382812-13.714844 15.789062-23.917969 30.535156-23.917969zm0 0"/><path d="m55.070312 304.59375c-5.269531 7.527344-6.542968 17.15625-3.414062 25.753906 12.710938 34.890625 46.214844 58.335938 83.363281 58.335938 37.152344 0 70.652344-23.445313 83.363281-58.335938 3.132813-8.597656 1.855469-18.226562-3.414062-25.753906-5.316406-7.597656-14.023438-12.136719-23.285156-12.136719h-113.324219c-9.265625 0-17.96875 4.539063-23.289063 12.136719zm147.5625 8.632812c2.492188 3.558594 3.078126 7.921876 1.601563 11.964844-10.550781 28.972656-38.367187 48.433594-69.214844 48.433594-30.847656 0-58.664062-19.460938-69.21875-48.433594-1.472656-4.042968-.886719-8.40625 1.601563-11.964844 2.542968-3.632812 6.535156-5.710937 10.953125-5.710937h113.324219c4.421874 0 8.414062 2.082031 10.953124 5.710937zm0 0"/><path d="m504.472656 145.769531c4.15625 0 7.527344-3.371093 7.527344-7.527343v-93.839844c0-24.207032-19.695312-43.902344-43.902344-43.902344h-185.503906c-24.203125 0-43.898438 19.695312-43.898438 43.902344v99.945312c-3.03125-.65625-6.136718-.996094-9.289062-.996094h-185.503906c-24.207032 0-43.902344 19.695313-43.902344 43.902344v14.527344c0 4.15625 3.371094 7.527344 7.527344 7.527344s7.527344-3.371094 7.527344-7.527344v-14.527344c0-15.90625 12.941406-28.84375 28.847656-28.84375h185.503906c3.316406 0 6.546875.554688 9.625 1.648438 1.527344 22.148437 8.355469 42.863281 19.222656 60.875 0 .03125-.003906.0625-.003906.09375v72.382812c0 67.050782-54.546875 121.597656-121.597656 121.597656-67.050782 0-121.597656-54.546874-121.597656-121.597656v-62.820312c0-4.160156-3.371094-7.53125-7.527344-7.53125s-7.527344 3.371094-7.527344 7.53125v62.820312c0 75.351563 61.300781 136.652344 136.652344 136.652344 75.351562 0 136.652344-61.300781 136.652344-136.652344v-52.070312c25.046874 28.125 61.507812 45.871094 102.042968 45.871094 33.804688 0 66.304688-12.566407 91.515625-35.378907 25.023438-22.644531 40.777344-53.414062 44.355469-86.644531.445312-4.132812-2.546875-7.84375-6.679688-8.289062-4.136718-.445313-7.84375 2.542968-8.289062 6.679687-3.183594 29.550781-17.207031 56.929687-39.488281 77.089844-22.433594 20.304687-51.347657 31.484375-81.414063 31.484375-67.046875 0-121.59375-54.546875-121.59375-121.59375v-106.15625c0-15.90625 12.9375-28.847656 28.84375-28.847656h185.503906c15.90625 0 28.84375 12.941406 28.84375 28.847656v93.839844c0 4.15625 3.371094 7.527343 7.527344 7.527343zm0 0"/><path d="m362.742188 112.371094c0-25.640625-20.859376-46.5-46.5-46.5-25.636719 0-46.5 20.859375-46.5 46.5 0 4.15625 3.371093 7.527344 7.53125 7.527344h77.941406c4.15625 0 7.527344-3.371094 7.527344-7.527344zm-77.03125-7.527344c3.382812-13.714844 15.789062-23.914062 30.53125-23.914062 14.746093 0 27.152343 10.199218 30.535156 23.914062zm0 0"/><path d="m484.21875 112.371094c0-25.640625-20.863281-46.5-46.5-46.5-25.640625 0-46.5 20.859375-46.5 46.5 0 4.15625 3.367188 7.527344 7.527344 7.527344h77.941406c4.160156 0 7.53125-3.371094 7.53125-7.527344zm-77.035156-7.527344c3.382812-13.714844 15.789062-23.914062 30.535156-23.914062 14.742188 0 27.148438 10.199218 30.53125 23.914062zm0 0"/><path d="m320.320312 232.570312h113.320313c9.265625 0 17.96875-4.539062 23.289063-12.136718 5.269531-7.527344 6.546874-17.15625 3.414062-25.753906-12.710938-34.890626-46.210938-58.335938-83.363281-58.335938-37.152344 0-70.652344 23.445312-83.363281 58.335938-3.132813 8.597656-1.855469 18.226562 3.414062 25.753906 5.320312 7.597656 14.027344 12.136718 23.289062 12.136718zm-12.558593-32.738281c10.554687-28.96875 38.371093-48.433593 69.21875-48.433593 30.847656 0 58.660156 19.464843 69.214843 48.433593 1.476563 4.046875.890626 8.410157-1.601562 11.96875-2.542969 3.628907-6.535156 5.710938-10.953125 5.710938h-113.320313c-4.421874 0-8.414062-2.082031-10.953124-5.710938-2.492188-3.558593-3.078126-7.921875-1.605469-11.96875zm0 0"/></g></svg>