<svg height="512pt" viewBox="-4 0 512 512.00199" width="512pt" xmlns="http://www.w3.org/2000/svg"><path d="m129.738281 504.550781h92.375c-1.601562-5.039062-4.378906-9.773437-8.355469-13.753906l-113.867187-113.863281c-13.308594-13.308594-35.082031-13.308594-48.390625 0-13.304688 13.304687-13.304688 35.078125-.992188 48.386718zm0 0" fill="#f0bca6"/><path d="m476.328125 349.730469c0 37.1875-30.148437 67.335937-67.335937 67.335937s-67.335938-30.148437-67.335938-67.335937 30.148438-67.335938 67.335938-67.335938 67.335937 30.148438 67.335937 67.335938zm0 0" fill="#d47a3d"/><path d="m487.273438 503.933594-.0625-21.085938c-.253907-84.269531-69.40625-153.011718-153.679688-152.761718l-52.582031.160156c-84.269531.25-153.011719 69.40625-152.757813 153.675781l.058594 20.011719zm0 0" fill="#f0bca6"/><path d="m487.210938 482.847656c-.25-84.269531-69.40625-153.011718-153.679688-152.761718l-18.425781.054687c82.257812 2.113281 149.019531 69.910156 149.265625 152.707031l.0625 21.085938h22.839844zm0 0" fill="#e4aa9b"/><path d="m390.53125 503.933594c-57.171875-16.660156-110.988281-78.105469-111.152344-132.984375-.042968-14.078125 1.78125-27.722657 5.21875-40.714844l-3.648437.011719c-84.269531.25-153.011719 69.40625-152.757813 153.675781l.058594 20.011719zm0 0" fill="#d0cfd1"/><path d="m279.378906 370.949219c-.042968-14.078125 1.78125-27.722657 5.21875-40.714844l-3.648437.011719c-6.609375.019531-13.121094.464844-19.515625 1.304687-3.21875 12.597657-4.9375 25.792969-4.894532 39.398438.164063 54.878906 53.980469 116.324219 111.152344 132.984375h22.839844c-57.171875-16.660156-110.988281-78.105469-111.152344-132.984375zm0 0" fill="#b1b1b1"/><path d="m224.851562 130.726562c-21.53125 0-38.972656 17.484376-38.921874 39.019532l.226562 90c.207031 68.019531 56.023438 123.503906 124.042969 123.300781s123.503906-56.019531 123.300781-124.039063l-.226562-89.457031c-.050782-21.457031-17.460938-38.824219-38.921876-38.824219zm0 0" fill="#f0bca6"/><path d="m433.300781 179.160156-.027343-9.609375c-.050782-21.457031-17.460938-38.824219-38.921876-38.824219h-169.5c-21.53125 0-38.972656 17.484376-38.921874 39.019532l.027343 9.414062zm0 0" fill="#d47a3d"/><path d="m278.953125 232.507812c-.019531-6.839843-5.582031-12.363281-12.417969-12.34375-6.839844.019532-12.367187 5.578126-12.34375 12.417969.019532 6.839844 5.578125 12.363281 12.417969 12.34375 6.835937-.019531 12.363281-5.578125 12.34375-12.417969zm0 0"/><path d="m366.414062 232.246094c-.019531-6.835938-5.578124-12.363282-12.417968-12.34375-6.839844.019531-12.363282 5.582031-12.34375 12.417968.019531 6.839844 5.578125 12.363282 12.417968 12.34375 6.839844-.019531 12.363282-5.578124 12.34375-12.417968zm0 0"/><path d="m493.621094 413.765625c-17.957032 36.835937-57.542969 32.574219-57.542969 32.574219s-27.742187-28.558594-9.785156-65.398438c8.386719-17.207031 30.257812-23.808594 48.851562-14.742187 18.59375 9.0625 26.863281 30.359375 18.476563 47.566406zm0 0" fill="#d47a3d"/><path d="m95.628906 431.164062h-34.214844c-20.046874 0-36.445312-16.402343-36.445312-36.449218s16.398438-36.449219 36.445312-36.449219h34.214844c20.046875 0 36.449219 16.402344 36.449219 36.449219s-16.402344 36.449218-36.449219 36.449218zm0 0" fill="#f0bca6"/><path d="m95.628906 358.265625h-22.839844c20.046876 0 36.449219 16.402344 36.449219 36.449219s-16.402343 36.449218-36.449219 36.449218h22.839844c20.046875 0 36.449219-16.402343 36.449219-36.449218s-16.402344-36.449219-36.449219-36.449219zm0 0" fill="#e4aa9b"/><path d="m77.621094 120.371094c38.710937-.117188 70.476562 31.460937 70.59375 70.171875l.1875 119.601562c.117187 38.710938-31.460938 43.167969-70.171875 43.285157-38.710938.113281-70.476563-4.152344-70.59375-42.863282l-.1875-119.601562c-.113281-38.710938 31.460937-70.476563 70.171875-70.59375zm0 0" fill="#2970d6"/><path d="m77.621094 120.371094c38.710937-.117188 70.476562 31.460937 70.59375 70.171875l.1875 119.601562c.117187 38.710938-31.460938 43.167969-70.171875 43.285157-38.710938.113281-70.476563-4.152344-70.59375-42.863282l-.1875-119.601562c-.113281-38.710938 31.460937-70.476563 70.171875-70.59375zm0 0" fill="#2970d6"/><path d="m45.683594 326.535156v-118.386718h-38.207032l.164063 102.417968c.0625 21.941406 10.304687 32.8125 26.207031 38.097656" fill="#fff8f7"/><path d="m148.574219 208.148438-.160157 102.417968c-.066406 21.941406-10.304687 32.8125-26.207031 38.097656-4.402343-1.425781-8.375-3.269531-11.835937-5.632812v-134.882812zm0 0" fill="#fff8f7"/><path d="m125.734375 208.148438-.160156 102.417968c-.046875 16.160156-5.621094 26.3125-14.902344 32.652344 3.390625 2.265625 7.253906 4.058594 11.535156 5.445312 15.902344-5.285156 26.140625-16.15625 26.207031-38.097656l.160157-102.417968zm0 0" fill="#e3e2e3"/><path d="m148.242188 207.984375-.027344-17.441406c-.117188-38.710938-31.882813-70.289063-70.59375-70.171875-38.710938.117187-70.289063 31.882812-70.171875 70.59375l.027343 17.019531zm0 0" fill="#91bcee"/><path d="m148.214844 190.542969c-.117188-38.710938-31.882813-70.289063-70.59375-70.171875-3.820313.011718-7.570313.34375-11.226563.949218 33.25 5.476563 58.875 34.464844 58.980469 69.222657l.027344 17.441406h22.839844zm0 0" fill="#4890e3"/><path d="m219.386719 145.863281h182.003906v196.503907c20.601563-22.292969 33.199219-52.0625 33.101563-84.625l-.332032-111.128907c-.207031-68.398437-56.335937-75.9375-124.734375-75.734375-68.398437.207032-124.191406 8.082032-123.988281 76.480469l.332031 111.128906c.097657 32.566407 12.878907 62.269531 33.617188 84.4375zm0 0" fill="#ecedef"/><path d="m434.160156 146.613281c-.207031-68.398437-56.335937-75.9375-124.734375-75.734375-3.113281.011719-6.195312.035156-9.253906.082032 62.089844 1 110.957031 11.84375 111.148437 75.652343l.332032 111.128907c.050781 17.625-3.621094 34.425781-10.261719 49.671874v34.953126c20.601563-22.292969 33.199219-52.0625 33.101563-84.625zm0 0" fill="#d0cfd1"/><path d="m332.820312 145.371094h-51.558593l-19.835938-137.921875h91.234375zm0 0" fill="#f45a3c"/><path d="m329.820312 7.449219-19.839843 137.921875h22.839843l19.839844-137.921875zm0 0" fill="#eb4c36"/><g fill="#f9cd45"><path d="m50.125 383.046875c-7.425781 0-13.503906-6.074219-13.503906-13.5v-29.398437c0-7.425782 6.078125-13.5 13.503906-13.5s13.503906 6.074218 13.503906 13.5v29.398437c0 7.425781-6.078125 13.5-13.503906 13.5zm0 0"/><path d="m76.53125 383.046875c-7.425781 0-13.5-6.074219-13.5-13.5v-29.398437c0-7.425782 6.074219-13.5 13.5-13.5 7.429688 0 13.503906 6.074218 13.503906 13.5v29.398437c0 7.425781-6.074218 13.5-13.503906 13.5zm0 0"/><path d="m103.539062 383.046875c-7.429687 0-13.503906-6.074219-13.503906-13.5v-29.398437c0-7.425782 6.078125-13.5 13.503906-13.5 7.425782 0 13.5 6.074218 13.5 13.5v29.398437c.003907 7.425781-6.074218 13.5-13.5 13.5zm0 0"/></g><path d="m60.054688 186.972656c-9.914063 0-18.027344-8.113281-18.027344-18.027344 0-9.914062 8.113281-18.027343 18.027344-18.027343 9.914062 0 18.027343 8.113281 18.027343 18.027343 0 9.914063-8.113281 18.027344-18.027343 18.027344zm0 0" fill="#fff4f1"/><path d="m98.941406 186.972656c-9.914062 0-18.027344-8.113281-18.027344-18.027344 0-9.914062 8.113282-18.027343 18.027344-18.027343 9.914063 0 18.027344 8.113281 18.027344 18.027343 0 9.914063-8.113281 18.027344-18.027344 18.027344zm0 0" fill="#fff4f1"/><path d="m79.515625 228.855469c-8.113281 0-14.753906-6.640625-14.753906-14.753907v-21.964843c0-8.117188 6.640625-14.753907 14.753906-14.753907 8.117187 0 14.753906 6.636719 14.753906 14.753907v21.964843c0 8.113282-6.636719 14.753907-14.753906 14.753907zm0 0" fill="#f8b53c"/><path d="m325.503906 293.109375c-4.320312 4-9.941406 6.210937-15.832031 6.226563-.023437 0-.046875 0-.070313 0-5.867187 0-11.476562-2.175782-15.800781-6.132813-3.035156-2.78125-7.746093-2.570313-10.523437.464844-2.777344 3.035156-2.566406 7.746093.46875 10.519531 7.078125 6.480469 16.253906 10.046875 25.855468 10.046875h.113282c9.640625-.03125 18.839844-3.652344 25.910156-10.199219 3.015625-2.792968 3.199219-7.503906.402344-10.523437-2.796875-3.015625-7.507813-3.199219-10.523438-.402344zm0 0" fill="#18191b"/><path d="m500.316406 417.027344c9.480469-19.449219 1.585938-43.179688-17.546875-55.101563.65625-4.019531 1.007813-8.105469 1.007813-12.195312 0-29.511719-17.421875-56.136719-43.953125-68.144531 1.417969-7.816407 2.140625-15.800782 2.117187-23.863282l-.335937-111.132812c-.1875-63.453125-46.402344-77.789063-89.6875-81.675782l8.113281-56.40625c.304688-2.136718-.332031-4.304687-1.746094-5.9375-1.410156-1.632812-3.464844-2.570312-5.625-2.570312h-91.234375c-2.160156 0-4.210937.9375-5.628906 2.570312-1.414063 1.632813-2.046875 3.800782-1.742187 5.9375l8.222656 57.164063c-25.847656 2.984375-44.347656 9.269531-57.863282 19.632813-17.867187 13.695312-26.507812 34-26.425781 62.078124l.210938 70.714844c.011719 4.105469 3.347656 7.425782 7.449219 7.425782h.023437c4.113281-.011719 7.4375-3.355469 7.425781-7.46875l-.210937-70.71875c-.125-41.472657 20.6875-61.121094 71.511719-66.914063l8.339843 57.992187h-53.351562c-4.113281 0-7.445313 3.335938-7.445313 7.449219v175.503907c-12.109375-18.671876-18.65625-40.40625-18.722656-62.898438l-.046875-14.84375c-.011719-4.105469-3.34375-7.425781-7.445313-7.425781-.007812 0-.015624 0-.023437 0-4.113281.015625-7.4375 3.359375-7.425781 7.472656l.042968 14.839844c.09375 30.101562 10.460938 58.988281 29.378907 82.324219-53.304688 27.683593-87.136719 82.816406-86.957031 143.109374l.003906 1.082032-46.414063-46.414063h21.296875c24.207032 0 43.898438-19.691406 43.898438-43.898437 0-12.722656-5.539063-24.714844-15.039063-33.019532v-6.105468c20.882813-7.011719 31.429688-22.285156 31.363281-45.453125l-.164062-102.160157-.023438-17.453124c-.003906-.191407-.015624-.375-.019531-.566407-.011719-1.125-.035156-2.246093-.09375-3.359375-.023437-.460937-.070312-.914062-.105469-1.371094-.058593-.84375-.113281-1.691406-.199218-2.53125-.050782-.46875-.121094-.933593-.179688-1.402343-.097656-.820313-.195312-1.640625-.320312-2.453125-.070313-.457032-.160156-.90625-.238282-1.359375-.140624-.816407-.277343-1.632813-.445312-2.441407-.089844-.445312-.199219-.878906-.300781-1.316406-.179688-.808594-.359375-1.621094-.566407-2.421875-.113281-.449219-.25-.890625-.375-1.335937-.214843-.777344-.425781-1.554688-.667968-2.320313-.152344-.496093-.328125-.984375-.492188-1.472656-.234375-.699219-.460937-1.402344-.714844-2.09375-.21875-.601563-.460937-1.191406-.695312-1.78125-.222656-.5625-.4375-1.128906-.671875-1.6875-.332031-.789063-.691406-1.5625-1.046875-2.335937-.160156-.34375-.304688-.6875-.46875-1.027344-7.214844-15.0625-19.132812-27.445313-33.835938-35.257813-.074218-.039062-.152343-.078125-.226562-.117187-1.003906-.527344-2.015625-1.039063-3.042969-1.523438-.292969-.140625-.59375-.269531-.890625-.402344-.824218-.375-1.644531-.75-2.484375-1.097656-.4375-.183594-.886719-.347656-1.332031-.523437-.710938-.28125-1.421875-.5625-2.144531-.824219-.53125-.191406-1.066407-.363281-1.601563-.542969-.65625-.21875-1.308594-.441406-1.976562-.648437-.574219-.175782-1.152344-.328125-1.734375-.492188-.640625-.179687-1.28125-.363281-1.925781-.527344-.589844-.148437-1.1875-.277343-1.78125-.410156-.648438-.148437-1.296876-.304687-1.957032-.4375-.589844-.117187-1.191406-.210937-1.785156-.316406-.667969-.117188-1.332031-.242188-2.003906-.34375-.597656-.089844-1.199219-.152344-1.800782-.230469-.679687-.082031-1.359374-.175781-2.042968-.246093-.621094-.058594-1.25-.09375-1.875-.140626-.667969-.050781-1.328125-.109374-2-.144531-.738282-.035156-1.476563-.039062-2.21875-.054687-.523438-.011719-1.042969-.039063-1.570313-.039063-.078125 0-.15625 0-.234375 0-1.320312.003907-2.632812.042969-3.941406.113281-.402344.019532-.800781.0625-1.203125.089844-.898437.0625-1.800781.121094-2.699219.214844-.445312.046875-.882812.113281-1.328125.167969-.84375.101562-1.6875.199219-2.527343.328125-.445313.070312-.882813.160156-1.324219.234375-.832031.144531-1.660157.285156-2.480469.453125-.4375.089844-.867188.199218-1.300781.296875-.816407.183593-1.632813.363281-2.441407.574219-.445312.113281-.886718.25-1.332031.371093-.777343.21875-1.554687.429688-2.328125.671875-.492187.152344-.976562.328125-1.464844.492188-.703124.234375-1.40625.464844-2.101562.71875-.589844.21875-1.171875.457031-1.753906.683594-.570313.226562-1.148438.445312-1.714844.683593-.761719.324219-1.507812.671875-2.257812 1.015625-.367188.167969-.738282.328125-1.105469.503906-1.035157.496094-2.058594 1.019532-3.070313 1.5625-.058594.03125-.121094.0625-.183594.09375-13.589843 7.324219-24.761718 18.566407-32 32.199219-.003906.011719-.011718.023438-.015624.03125-.5625 1.066407-1.105469 2.140625-1.621094 3.234375-.148438.316406-.285156.636719-.429688.957032-.363281.800781-.726562 1.597656-1.066406 2.414062-.214844.523438-.414062 1.054688-.617188 1.585938-.246093.625-.5 1.25-.726562 1.886718-.238281.660156-.449219 1.324219-.667969 1.992188-.175781.527344-.355469 1.046875-.519531 1.578125-.226562.742187-.425781 1.492187-.628906 2.242187-.128906.472656-.269532.941406-.390625 1.421875-.199219.785157-.367188 1.578125-.542969 2.371094-.097656.457031-.210938.90625-.300781 1.367187-.164063.808594-.292969 1.621094-.429688 2.433594-.078125.457032-.167969.910156-.234375 1.371094-.121094.828125-.214844 1.660156-.308594 2.488281-.054687.457031-.121093.910157-.167968 1.371094-.085938.894531-.140625 1.792969-.195313 2.695313-.027343.402343-.066406.800781-.0859372 1.203124-.0625 1.308594-.09375005 2.621094-.0898438 3.941407v.082031l.191406 119.53125c0 .730469.015625 1.457031.039063 2.171875.003906.207031.019531.410156.027343.617187.019532.507813.042969 1.015626.074219 1.515626.015625.230468.035157.457031.050781.6875.035157.472656.070313.941406.113282 1.40625.023437.222656.050781.445312.074218.664062.046876.46875.101563.9375.160157 1.398438.027343.199218.054687.398437.085937.601562.066406.480469.136719.957031.214844 1.429688.03125.171874.058594.339843.089844.507812.089844.503906.183594 1.003906.285156 1.5.027344.128906.054688.257812.082031.386719.113281.542969.238281 1.078125.367188 1.609375.019531.078125.039062.152344.058593.230468.152344.59375.3125 1.183594.480469 1.765626.003907.007812.007813.019531.007813.027343 3.875 13.238281 12.832031 22.554688 26.769531 27.796875v10.367188c-.460937.339844-.902344.722656-1.292969 1.179687-6.679687 7.910157-10.359375 17.949219-10.359375 28.257813 0 21.085937 14.941407 38.738281 34.789063 42.941406l69.023437 69.023438c.839844 2.117187 2.617188 3.753906 4.820313 4.398437 1.113281.613281 2.347656.925781 3.585937.925781 1.007813 0 2.015625-.210937 2.960938-.621094h257.808593c.007813 0 .015626.003907.027344.003907.007813 0 .015625-.003907.023438-.003907h96.714844c1.980468 0 3.878906-.789062 5.277343-2.1875 1.398438-1.402343 2.179688-3.304687 2.171875-5.28125l-.0625-21.085937c-.011718-4.105469-3.34375-7.425781-7.445312-7.425781-.007813 0-.015625 0-.023438 0-4.113281.011718-7.4375 3.355468-7.425781 7.46875l.039063 13.617187h-88.167969c-48.328125-14.542969-92.976563-62.09375-102.800781-107.722656 6.910156 1.140625 13.933593 1.730469 21.003906 1.730469h.382812c33.761719-.097656 66.109375-13.367188 90.394532-36.730469 8.578124 4.441406 16.691406 9.753906 24.253906 15.816406-2.042969 2.433594-3.824219 5.132813-5.269532 8.101563-16.019531 32.855468.277344 62.671875 11.136719 73.847656 1.210938 1.25 2.816407 2.03125 4.542969 2.21875 1.574219.167969 3.328125.265625 5.234375.265625 9.265625 0 22.03125-2.257813 34.046875-9.164063 1.054688 3.824219 1.96875 7.6875 2.703125 11.566407.671875 3.578125 3.796875 6.070312 7.308594 6.070312.457031 0 .921875-.042969 1.386719-.128906 4.042968-.761719 6.703124-4.65625 5.941406-8.699219-1.167969-6.195312-2.742188-12.359375-4.640625-18.382812 4.96875-4.855469 9.453125-10.863282 13.054687-18.25zm-31.433594-67.296875c0 2.089843-.113281 4.179687-.328124 6.253906-11.113282-2.648437-22.5-1.089844-31.878907 3.984375-7.945312-6.628906-16.488281-12.457031-25.515625-17.4375 11.480469-13.695312 19.953125-29.382812 25.070313-46.144531 19.804687 10.125 32.652343 30.667969 32.652343 53.34375zm-124.820312-334.835938-3.378906 23.503907c-.128906-.007813-.257813-.019532-.386719-.019532h-28.136719c-4.117187 0-7.449218 3.335938-7.449218 7.449219s3.332031 7.445313 7.449218 7.445313h26.382813l-12.175781 84.648437h-38.652344l-5.582032-38.824219h19.792969c4.117188 0 7.449219-3.335937 7.449219-7.449218 0-4.113282-3.332031-7.449219-7.449219-7.449219h-21.933593l-9.96875-69.304688zm5.730469 64.800781c24.722656 2.179688 42.074219 7.179688 54.203125 15.609376 15.214844 10.566406 22.644531 27.355468 22.714844 51.328124l.332031 111.132813c.066406 22.402344-6.296875 44.09375-18.203125 62.789063v-174.691407c0-4.113281-3.332032-7.449219-7.449219-7.449219h-60.042969zm44.152343 73.613282v18.402344h-167.109374v-18.402344zm-323.003906 184.527344c.910156-2.195313 3.074219-3.742188 5.589844-3.742188 3.339844 0 6.054688 2.71875 6.054688 6.054688v29.398437c0 3.335937-2.714844 6.054687-6.054688 6.054687-2.519531 0-4.679688-1.546874-5.589844-3.742187.082032-.761719.132813-1.53125.132813-2.3125v-29.398437c0-.78125-.050781-1.550782-.132813-2.3125zm5.589844-18.636719c-5 0-9.597656 1.765625-13.203125 4.703125-2.867187-2.335938-6.371094-3.90625-10.199219-4.464844v-104.003906h4.226563c.691406 11.625 10.363281 20.871094 22.160156 20.871094 11.792969 0 21.464844-9.246094 22.160156-20.871094h1.246094v103.796875c-4.902344.144531-9.386719 1.964843-12.886719 4.925781-3.648437-3.085938-8.359375-4.957031-13.503906-4.957031zm-43.273438-172.753907c11.890626-11.960937 27.652344-18.574218 44.386719-18.625h.191407c1.0625 0 2.117187.027344 3.167968.078126.371094.019531.734375.058593 1.101563.082031.679687.046875 1.359375.085937 2.035156.15625.445313.042969.882813.109375 1.324219.164062.589844.070313 1.183594.136719 1.765625.222657.488281.074218.96875.167968 1.453125.25.53125.09375 1.066406.179687 1.59375.285156.53125.109375 1.054687.234375 1.582031.355468.46875.109376.941406.207032 1.40625.328126.597656.148437 1.183594.320312 1.777344.488281.378906.109375.765625.210937 1.144531.328125.695312.210937 1.378906.445312 2.0625.679687.261719.089844.527344.171875.785156.265625.839844.304688 1.667969.625 2.492188.964844.09375.035156.1875.070312.277344.109375 7.488281 3.109375 14.386718 7.691406 20.335937 13.601563 6.710937 6.671874 11.734375 14.5625 14.867187 23.160156.0625.175781.121094.359375.183594.539062.269532.765625.535156 1.535156.773438 2.3125.097656.316406.183594.640625.277344.960938.191406.652344.382812 1.304687.550781 1.964844.109375.410156.195312.832031.292969 1.246093.136718.578125.277343 1.15625.398437 1.742188.097656.480469.175781.964843.261719 1.449219.097656.53125.203125 1.0625.285156 1.601562.082031.53125.140625 1.070312.207031 1.605469.066407.496093.140625.992187.191407 1.488281.0625.605469.097656 1.214844.144531 1.824219.03125.4375.078125.875.101562 1.316406.042969.855469.0625 1.71875.070313 2.585937.003906.191407.015625.382813.015625.578126l.019531 9.984374h-39.066406v-6.269531c12.746094-1.390625 22.699218-12.214843 22.699218-25.320312 0-14.046875-11.429687-25.476563-25.476562-25.476563-7.785156 0-14.765625 3.515625-19.441406 9.042969-4.675782-5.523437-11.65625-9.042969-19.441406-9.042969-14.046876 0-25.476563 11.429688-25.476563 25.476563 0 13.117187 9.972656 23.953125 22.734375 25.324219v6.265624h-42.398438l-.015624-9.574218v-.019532c-.050782-16.734374 6.46875-32.539062 18.359374-44.5zm28.019532 33.046876c-.171875 0-.34375 0-.519532.007812-.230468.015625-.464843.023438-.703124.023438-5.832032 0-10.578126-4.746094-10.578126-10.578126 0-5.832031 4.746094-10.578124 10.578126-10.578124 5.832031 0 10.578124 4.746093 10.578124 10.578124 0 1.046876-.152343 2.066407-.457031 3.054688-3.585937 1.671875-6.65625 4.273438-8.898437 7.492188zm10.933594 12.644531c0-4.03125 3.277343-7.308594 7.304687-7.308594s7.308594 3.277344 7.308594 7.308594v21.964843c0 4.027344-3.28125 7.304688-7.308594 7.304688-4.03125 0-7.304687-3.277344-7.304687-7.304688zm16.597656-20.15625c-.003906-.015625-.007813-.027344-.011719-.042969-.285156-.964844-.433594-1.972656-.433594-2.992188 0-5.832031 4.746094-10.578124 10.578125-10.578124 5.832032 0 10.578125 4.746093 10.578125 10.578124 0 5.832032-4.746093 10.578126-10.578125 10.578126-.375 0-.742187.039062-1.101562.089843-2.257813-3.289062-5.378906-5.941406-9.03125-7.632812zm-50.574219 43.453125v107.484375c-5.0625 3.507812-8.5 9.175781-8.980469 15.664062-6.828125-3.800781-11.054687-9.320312-12.960937-17.0625-.011719-.050781-.019531-.101562-.03125-.152343-.183594-.746094-.339844-1.515626-.480469-2.300782-.027344-.171875-.050781-.355468-.078125-.53125-.113281-.6875-.214844-1.382812-.296875-2.097656-.039062-.382812-.066406-.785156-.101562-1.179688-.046876-.546874-.101563-1.085937-.128907-1.648437-.054687-.992187-.085937-2.003906-.089843-3.050781l-.148438-95.125zm5.835937 134.9375c.066407-.589844.070313-1.175782 0-1.75v-8.472656c0-3.335938 2.714844-6.054688 6.054688-6.054688 2.519531 0 4.683594 1.546875 5.59375 3.742188-.085938.761718-.136719 1.53125-.136719 2.3125v29.398437c0 .78125.050781 1.550781.136719 2.3125-.910156 2.195313-3.074219 3.742187-5.59375 3.742187-3.339844 0-6.054688-2.71875-6.054688-6.054687zm53.414063-10.222656c0-3.335938 2.714844-6.054688 6.054687-6.054688 3.335938 0 6.054688 2.71875 6.054688 6.054688v29.398437c0 3.335937-2.71875 6.054687-6.054688 6.054687-3.339843 0-6.054687-2.71875-6.054687-6.054687zm26.976563-.527344c-.144532-5.820313-2.671876-11.046875-6.644532-14.757813v-109.429687h22.988282l.148437 94.734375c.046875 14.925781-4.980469 24.121093-16.492187 29.453125zm-92.046876 55.09375c0-3.828125.777344-7.59375 2.242188-11.089844 3.832031 4.207031 9.339844 6.871094 15.46875 6.871094 5.003906 0 9.597656-1.769532 13.203125-4.703125 3.609375 2.933593 8.203125 4.703125 13.207031 4.703125 5.140625 0 9.851563-1.871094 13.5-4.957032 3.652344 3.085938 8.359375 4.957032 13.503906 4.957032 7.347657 0 13.8125-3.808594 17.554688-9.550782 2.277344 4.175782 3.535156 8.886719 3.535156 13.769532 0 15.992187-13.007812 29-29 29h-34.214844c-15.988281 0-29-13.007813-29-29zm278.804688 65.6875c13.058594 14.574218 28.011719 26.832031 43.804688 36.082031h-219.347657l-.035156-12.582031c-.167969-55.875 31.863281-106.894532 82.058594-131.457032 15.574219 15.402344 34.664062 26.589844 55.328125 32.699219 3.785156 25.316407 17.214844 51.84375 38.191406 75.257813zm-1.042969-84.800782c-.113281 0-.226562 0-.339843 0-31.066407 0-61.136719-12.738281-83-35.078124v-153.917969h167.105468v152.746093c-.097656.101563-.195312.207032-.296875.3125v.003907c-21.859375 22.800781-51.976562 35.835937-83.46875 35.933593zm129.46875 63.460938c-5.257812-6.636719-19.570312-28.371094-6.660156-54.855469 6.578125-13.488281 24.023437-18.5625 38.898437-11.3125 14.871094 7.246094 21.617188 24.117188 15.042969 37.609375-12.976562 26.621094-38.789062 28.664063-47.28125 28.558594zm0 0" fill="#18191b"/></svg>