<svg height="512pt" viewBox="-73 0 512 512.001" width="512pt" xmlns="http://www.w3.org/2000/svg"><path d="m355.113281 503.441406-.070312-22.453125c-.242188-81.574219-67.183594-148.113281-148.757813-147.871093l-50.898437.152343c-81.574219.246094-148.113281 67.1875-147.871094 148.757813l.066406 22.457031zm0 0" fill="#f0bca6"/><path d="m355.042969 480.988281c-.242188-81.574219-67.183594-148.113281-148.757813-147.871093l-18.703125.054687c79.589844 2.082031 144.171875 67.695313 144.414063 147.816406l.066406 22.453125h23.050781zm0 0" fill="#e4aa9b"/><path d="m153.863281 372.671875c-.039062-13.625 1.726563-26.835937 5.054688-39.414063l-3.53125.011719c-81.574219.246094-148.113281 67.1875-147.871094 148.761719l.066406 22.453125 263.179688-.789063c-58.65625-11.742187-116.730469-74.929687-116.898438-131.023437zm0 0" fill="#fff4f1"/><path d="m91.660156 229.101562c-.070312-22.675781-18.507812-41.003906-41.183594-40.933593-22.675781.066406-41.003906 18.503906-40.9375 41.179687.066407 22.679688 18.507813 41.007813 41.183594 40.9375 22.675782-.066406 41.003906-18.503906 40.9375-41.183594zm0 0" fill="#f0bca6"/><path d="m358.855469 228.300781c-.070313-22.675781-18.507813-41.003906-41.183594-40.9375-22.679687.070313-41.007813 18.507813-40.9375 41.183594.066406 22.679687 18.503906 41.007813 41.183594 40.9375 22.675781-.066406 41.003906-18.503906 40.9375-41.183594zm0 0" fill="#f0bca6"/><path d="m185.757812 386.855469c-69.601562.207031-126.71875-56.566407-126.925781-126.164063l-.339843-113.082031c-.207032-69.601563 56.566406-126.714844 126.167968-126.925781 69.597656-.207032 126.714844 56.566406 126.921875 126.167968l.339844 113.082032c.207031 69.597656-56.566406 126.714844-126.164063 126.921875zm0 0" fill="#d0cfd1"/><path d="m311.582031 146.847656c-.207031-69.597656-57.324219-126.371094-126.921875-126.164062-3.753906.011718-7.46875.199218-11.136718.53125 64.085937 5.863281 114.816406 60.050781 115.011718 125.632812l.339844 113.082032c.195312 65.847656-50.613281 120.511718-115.03125 126.390624 3.925781.359376 7.898438.546876 11.914062.535157 69.597657-.207031 126.371094-57.324219 126.164063-126.925781zm0 0" fill="#aaa"/><path d="m180.636719 282.222656c38.378906-.113281 72.503906 4.757813 94.238281 32.980469 1.363281-6.335937 2.078125-12.847656 2.058594-19.464844l-.34375-113.949219c0-.320312-.019532-.632812-.023438-.953124l-183.003906.546874c0 .320313-.019531.636719-.019531.953126l.339843 113.949218c.011719 3.410156.230469 6.792969.613282 10.136719 21.535156-22.976563 52.164062-24.09375 86.140625-24.199219zm0 0" fill="#f0bca6"/><path d="m276.589844 181.789062c0-.320312-.019532-.632812-.023438-.953124l-23.046875.070312c.003907.292969.023438.585938.023438.882812l.34375 113.949219c0 .28125-.007813.5625-.011719.847657 7.855469 4.644531 14.914062 10.714843 21 18.621093 1.363281-6.339843 2.078125-12.851562 2.058594-19.46875zm0 0" fill="#e4aa9b"/><path d="m309.296875 136.996094-249.011719.746094c-14.886718.042968-27.105468-12.101563-27.148437-26.988282-.046875-14.886718 12.097656-27.105468 26.984375-27.148437l249.015625-.75c14.886719-.042969 27.105469 12.101562 27.148437 26.988281.046875 14.890625-12.097656 27.105469-26.988281 27.152344zm0 0" fill="#ecedef"/><path d="m257.898438 80.488281c-.121094-40.421875-32.988282-73.09375-73.410157-72.972656s-73.09375 32.988281-72.972656 73.410156 32.988281 73.09375 73.410156 72.972657c40.421875-.121094 73.09375-32.988282 72.972657-73.410157zm0 0" fill="#ecedef"/><path d="m184.484375 7.515625c-3.851563.011719-7.632813.324219-11.324219.910156 34.867188 5.503907 61.578125 35.628907 61.6875 72.0625.109375 36.570313-26.617187 66.949219-61.644531 72.5 3.820313.605469 7.730469.921875 11.722656.910157 40.421875-.121094 73.09375-32.988282 72.972657-73.410157-.121094-40.421875-32.988282-73.09375-73.414063-72.972656zm0 0" fill="#d0cfd1"/><path d="m155.71875 239.59375c-.019531-6.617188-5.402344-11.96875-12.023438-11.949219-6.617187.019531-11.96875 5.402344-11.949218 12.023438.023437 6.617187 5.402344 11.96875 12.023437 11.949219 6.617188-.023438 11.96875-5.402344 11.949219-12.023438zm0 0"/><path d="m240.378906 239.339844c-.019531-6.617188-5.398437-11.96875-12.019531-11.949219s-11.96875 5.402344-11.949219 12.023437c.019532 6.617188 5.402344 11.96875 12.019532 11.949219 6.621093-.023437 11.972656-5.402343 11.949218-12.023437zm0 0"/><path d="m155.714844 40.925781h52.964844l-17.460938 47.171875h17.460938l-31.449219 42.320313zm0 0" fill="#f9cd45"/><g fill="#18191b"><path d="m348.707031 417.367188c-1.71875-3.78125-6.175781-5.453126-9.953125-3.734376-3.78125 1.71875-5.449218 6.175782-3.730468 9.953126 8.238281 18.128906 12.445312 37.445312 12.503906 57.425781l.046875 14.9375-76.035157.226562c-24.542968-5.101562-50.558593-20.378906-71.492187-42.019531-18.125-18.734375-30.894531-40.648438-36.074219-61.5 6.96875 1.121094 14.117188 1.714844 21.398438 1.714844h.40625c34.773437-.105469 66.453125-13.511719 90.238281-35.371094 17.253906 9.839844 32.527344 23.441406 44.304687 39.496094 1.472657 2.007812 3.753907 3.070312 6.066407 3.070312 1.542969 0 3.097656-.472656 4.4375-1.457031 3.347656-2.453125 4.070312-7.15625 1.617187-10.503906-12.257812-16.707031-27.941406-31.007813-45.65625-41.707031 16.902344-19.546876 28.265625-44.007813 31.617188-70.910157 12.800781-.160156 24.800781-5.226562 33.839844-14.320312 9.144531-9.203125 14.160156-21.414063 14.125-34.390625-.039063-12.972656-5.128907-25.15625-14.332032-34.304688-8.832031-8.78125-20.445312-13.742187-32.839844-14.089844l-.097656-33.058593c-.003906-1.242188-.039062-2.492188-.078125-3.738281 14.34375-4.25 24.828125-17.5625 24.78125-33.265626-.058593-19.035156-15.5625-34.480468-34.585937-34.480468-.035156 0-.070313 0-.105469 0l-11.050781.03125c-13-20.339844-31.128906-36.785156-52.605469-47.714844-14.808594-16.933594-36.546875-27.65625-60.742187-27.65625-.082032 0-.164063 0-.246094 0-24.410156.0742188-46.273438 11.046875-61.035156 28.269531-21.207032 11.058594-39.066407 27.523438-51.839844 47.785157l-11.488282.03125c-19.070312.058593-34.539062 15.621093-34.480468 34.691406.023437 9.207031 3.65625 17.871094 10.226562 24.398437 4.300782 4.277344 9.515625 7.28125 15.191406 8.839844-.03125 1.207031-.0625 2.414063-.058593 3.613281l.097656 33.035156c-.207031 0-.414063-.011718-.625-.011718-12.976563.039062-25.15625 5.125-34.304687 14.328125-9.148438 9.203125-14.164063 21.417969-14.125 34.390625.082031 26.734375 21.855468 48.429687 48.574218 48.429687h.148438c.566406 0 1.132812-.027343 1.699218-.046875 3.292969 25.21875 13.621094 48.246094 28.933594 67.054688-28.589844 15.667968-51.824218 40.054687-66.039062 69.546875-1.800782 3.738281-.230469 8.230469 3.507812 10.035156 1.054688.503906 2.164063.746094 3.257813.746094 2.796875 0 5.480469-1.566407 6.777343-4.253907 13.390626-27.78125 35.632813-50.546874 62.976563-64.613281 15.511719 15.117188 34.652344 26.515625 55.976563 32.746094 4.519531 25.855469 19.089843 52.523437 41.410156 75.59375 12.371094 12.789063 26.441406 23.574219 41.074218 31.691406l-215.242187.648438-.042969-14.941407c-.039062-12.511718 1.585938-24.9375 4.832032-36.933593 1.082031-4.007813-1.285157-8.136719-5.292969-9.21875-4.011719-1.085938-8.136719 1.285156-9.21875 5.292969-3.59375 13.285156-5.3945315 27.042968-5.355469 40.890624v.015626l.0664062 22.453124c.0117188 3.882813 2.9687498 7.074219 6.7499998 7.457032.25.023437.507813.035156.765625.035156h.023438l257.640625-.769531 5.496094-.015625h.027343.035157l84.328124-.253906c1.996094-.007813 3.902344-.804688 5.308594-2.21875 1.40625-1.414063 2.191406-3.328126 2.1875-5.320313l-.070312-22.457031c-.0625-22.121094-4.726563-43.519532-13.851563-63.597656zm-7.265625-212.730469c6.351563 6.316406 9.867188 14.726562 9.894532 23.6875.027343 8.960937-3.4375 17.394531-9.753907 23.75-5.957031 5.992187-13.777343 9.457031-22.164062 9.851562.007812-.671875.023437-1.34375.019531-2.015625l-.195312-64.996094c8.378906.355469 16.210937 3.769532 22.199218 9.722657zm-32.28125-114.265625h.058594c10.753906 0 19.519531 8.734375 19.550781 19.496094.015625 5.195312-2.011719 10.101562-5.707031 13.820312-3.699219 3.71875-8.59375 5.777344-13.785156 5.792969l-60.414063.179687c8.75-11.421875 14.222657-24.859375 15.941407-39.15625zm-29.367187-14.941406-14.5625.042968c-.429688-6.636718-1.652344-13.0625-3.59375-19.167968 6.722656 5.671874 12.804687 12.085937 18.15625 19.125zm-95.285157-60.398438h.203126c36.117187 0 65.5625 29.335938 65.671874 65.480469.054688 17.542969-6.730468 34.054687-19.097656 46.496093-12.367187 12.441407-28.839844 19.324219-46.382812 19.375-.066406 0-.128906 0-.199219 0-36.121094 0-65.566406-29.332031-65.671875-65.476562-.109375-36.214844 29.265625-65.765625 65.476562-65.875zm-76.976562 42.042969c-1.851562 6.027343-2.996094 12.355469-3.378906 18.882812l-14.300782.042969c5.210938-6.945312 11.136719-13.289062 17.679688-18.925781zm-66.878906 53.65625c-.035156-10.78125 8.710937-19.578125 19.492187-19.613281l44.53125-.132813c1.863281 14.59375 7.628907 27.96875 16.222657 39.058594l-60.636719.183593c-5.152344-.007812-10.101563-2.011718-13.820313-5.710937-3.71875-3.695313-5.777344-8.59375-5.789062-13.785156zm10.046875 152.039062c-.035157 0-.066407 0-.101563 0-18.449218 0-33.488281-14.984375-33.542968-33.445312-.027344-8.957031 3.4375-17.394531 9.753906-23.746094 6.316406-6.355469 14.730468-9.871094 23.6875-9.898437.207031 0 .417968.007812.625.011718l.195312 65.023438c0 .679687.019532 1.355468.03125 2.035156-.214844.007812-.433594.019531-.648437.019531zm49.035156 80.113281c-.472656-.703124-1.046875-1.308593-1.699219-1.800781-19.574218-21.152343-31.59375-49.394531-31.6875-80.414062l-.339844-113.085938c0-.777343.027344-1.5625.039063-2.34375l69.984375-.210937c13.542969 10.277344 30.40625 16.386718 48.671875 16.386718h.242187c17.921876-.054687 34.921876-5.921874 48.882813-16.679687l70.1875-.207031c.019531.78125.046875 1.5625.050781 2.34375l.335938 113.082031c.199218 65.632813-53.039063 119.1875-118.671875 119.386719-.121094 0-.238281 0-.359375 0-33.578125-.003906-63.964844-13.992188-85.636719-36.457032zm0 0"/><path d="m268.921875 319.792969c1.441406 1.871093 3.652344 2.929687 5.953125 2.929687.550781 0 1.105469-.0625 1.65625-.1875 2.855469-.644531 5.074219-2.886718 5.691406-5.75 1.5-6.960937 2.246094-14.050781 2.226563-21.070312l-.339844-113.949219c-.003906-.261719-.011719-.523437-.019531-.78125l-.007813-.253906c-.058593-4.109375-3.40625-7.410157-7.515625-7.410157-.007812 0-.015625 0-.023437 0l-183.003907.546876c-4.117187.011718-7.460937 3.339843-7.492187 7.457031l-.007813.253906c-.007812.261719-.015624.519531-.011718.78125l.339844 113.949219c.011718 3.535156.234374 7.226562.660156 10.964844.332031 2.910156 2.324218 5.363281 5.105468 6.285156 2.78125.917968 5.839844.140625 7.847657-1.996094 18.828125-20.089844 45.316406-21.71875 80.679687-21.824219 39-.132812 68.929688 4.949219 88.261719 30.054688zm-167.539063-29.082031-.304687-101.832032 168.019531-.503906.320313 107.386719c.003906.902343-.011719 1.808593-.039063 2.714843-23.699218-20.453124-55.664062-23.769531-87.355468-23.769531-.46875 0-.9375.003907-1.40625.003907-26.433594.078124-55.84375.164062-79.234376 16zm0 0"/><path d="m208.578125 314.382812c-2.820313-3.046874-7.578125-3.230468-10.621094-.40625-4.125 3.816407-9.492187 5.929688-15.117187 5.945313-.023438 0-.046875 0-.066406 0-5.605469 0-10.957032-2.078125-15.089844-5.859375-3.0625-2.800781-7.816406-2.589844-10.617188.472656-2.800781 3.0625-2.59375 7.816406.46875 10.617188 6.910156 6.324218 15.867188 9.804687 25.238282 9.804687h.109374c9.410157-.027343 18.390626-3.5625 25.289063-9.953125 3.042969-2.820312 3.226563-7.578125.40625-10.621094zm0 0"/><path d="m159.71875 205.800781-28.308594-7.492187c-4.015625-1.0625-8.128906 1.328125-9.191406 5.34375-1.0625 4.011718 1.332031 8.125 5.34375 9.1875l28.3125 7.492187c.640625.171875 1.289062.253907 1.925781.253907 3.328125 0 6.371094-2.226563 7.261719-5.597657 1.0625-4.011719-1.332031-8.125-5.34375-9.1875zm0 0"/><path d="m214.164062 220.417969c.652344 0 1.3125-.085938 1.972657-.265625l28.265625-7.660156c4.003906-1.089844 6.375-5.214844 5.285156-9.222657-1.085938-4.003906-5.210938-6.371093-9.21875-5.285156l-28.265625 7.660156c-4.007813 1.085938-6.375 5.214844-5.285156 9.222657.90625 3.347656 3.9375 5.550781 7.246093 5.550781zm0 0"/><path d="m169.921875 132.171875c.683594 2.835937 2.945313 5.023437 5.804687 5.609375.5.101562 1.003907.152344 1.503907.152344 2.347656 0 4.597656-1.105469 6.03125-3.035156l31.449219-42.316407c1.695312-2.28125 1.957031-5.320312.683593-7.859375-1.277343-2.539062-3.875-4.140625-6.714843-4.140625h-6.667969l13.714843-37.046875c.855469-2.308594.527344-4.886718-.878906-6.902344-1.40625-2.019531-3.710937-3.222656-6.167968-3.222656h-52.964844c-2.300782 0-4.476563 1.054688-5.902344 2.863282-1.425781 1.808593-1.941406 4.167968-1.402344 6.410156zm27.960937-83.730469-13.714843 37.046875c-.851563 2.308594-.523438 4.886719.878906 6.90625 1.40625 2.015625 3.710937 3.21875 6.167969 3.21875h2.515625l-12.949219 17.421875-15.527344-64.59375zm0 0"/></g></svg>